<?xml version='1.0' encoding='UTF-8'?>
<!DOCTYPE svg PUBLIC "-//W3C//DTD SVG 1.1//EN" "http://www.w3.org/Graphics/SVG/1.1/DTD/svg11.dtd">
<svg xmlns:xlink="http://www.w3.org/1999/xlink" xmlns="http://www.w3.org/2000/svg" version="1.1" x="0" y="0" width="24px" height="72px" viewBox="0 0 24 72" preserveAspectRatio="none" fill="#4d4d4d">
    <g transform="translate(0,48)">
        <path d="M7 10l5 5 5-5z" />
    </g>
    <g transform="translate(0,0)">
        <path d="M10 17l5-5-5-5v10z" />
    </g>
    <g transform="translate(0,24)">
        <path d="M12 8c1.1 0 2-.9 2-2s-.9-2-2-2-2 .9-2 2 .9 2 2 2zm0 2c-1.1 0-2 .9-2 2s.9 2 2 2 2-.9 2-2-.9-2-2-2zm0 6c-1.1 0-2 .9-2 2s.9 2 2 2 2-.9 2-2-.9-2-2-2z" />
    </g>
</svg>