<?xml version="1.0" encoding="utf-8"?>
<!-- Generator: Adobe Illustrator 15.0.0, SVG Export Plug-In  -->
<!DOCTYPE svg PUBLIC "-//W3C//DTD SVG 1.1//EN" "http://www.w3.org/Graphics/SVG/1.1/DTD/svg11.dtd" [
	<!ENTITY ns_flows "http://ns.adobe.com/Flows/1.0/">
]>
<svg version="1.1" xmlns="http://www.w3.org/2000/svg" xmlns:xlink="http://www.w3.org/1999/xlink" xmlns:a="http://ns.adobe.com/AdobeSVGViewerExtensions/3.0/" x="0px" y="0px" width="21px" height="21px" viewBox="0 0 21 21" overflow="visible" enable-background="new 0 0 21 21" xml:space="preserve" fill="#cccccc">
	<defs></defs>
	<path d="M16.742,15.501l-3.646-3.646c0.566-0.811,0.903-1.792,0.903-2.855c0-2.762-2.238-5-4.999-5C6.238,4,4,6.238,4,9s2.238,5,5,5
	c1.063,0,2.045-0.337,2.855-0.903l3.646,3.646c0.343,0.343,0.898,0.344,1.241,0.001C17.086,16.399,17.086,15.845,16.742,15.501z
	 M9,12.2c-1.768,0-3.2-1.433-3.2-3.2S7.232,5.8,9,5.8c1.769,0,3.199,1.433,3.199,3.2S10.769,12.2,9,12.2z" />
	<rect opacity="0" fill="#4387FD" width="21" height="21" />
</svg>